<svg width="54" height="53" viewBox="0 0 54 53" fill="none" xmlns="http://www.w3.org/2000/svg">
<path d="M35.4847 25.2648L16.7788 14.4244L10.3684 25.44" stroke="#EC0000" stroke-width="1.5" stroke-miterlimit="10" stroke-linecap="round" stroke-linejoin="round"/>
<path d="M36.875 34.9388L25.1716 37.4715C23.9754 37.678 22.7803 36.9484 22.4178 35.8039C21.8481 34.0872 22.6824 32.2683 24.3474 31.5424L32.7241 27.9134C35.3776 26.7729 38.3936 26.7768 41.0441 27.9243L45.7214 30.0104L45.7072 40.8784L41.9112 40.8734C41.1312 40.8724 40.3511 40.9754 39.5707 41.2343L28.5944 44.548C27.3979 44.9624 26.1499 44.9608 24.9545 44.4912L8.84379 37.3462C8.32413 37.0855 8.11687 36.5132 8.37755 35.9936L8.63837 35.3699C9.10766 34.3825 10.2003 33.864 11.2401 34.0733L22.2095 36.0117" stroke="#EC0000" stroke-width="1.5" stroke-miterlimit="10" stroke-linecap="round" stroke-linejoin="round"/>
<path d="M25.241 25.3554C25.2393 26.6554 24.198 27.6421 22.95 27.6404C21.65 27.6387 20.6633 26.5974 20.665 25.3494C20.6666 24.1014 21.708 23.0628 22.956 23.0644C24.204 23.0141 25.2427 24.0554 25.241 25.3554Z" stroke="#EC0000" stroke-width="1.5" stroke-miterlimit="10" stroke-linecap="round" stroke-linejoin="round"/>
<path d="M41.0457 27.9239C38.8629 26.985 36.3671 26.8258 34.0783 27.4468L35.4334 25.1085L30.9648 22.5027L33.4665 18.138L14.7606 7.2975L8.35015 18.3651L12.8187 20.971L10.317 25.3357L22.9435 32.6322C22.2664 33.5153 22.0048 34.711 22.4194 35.8035C22.4193 35.8555 22.4713 35.8556 22.4712 35.9076L22.3152 35.9074L11.3458 33.9691C10.514 33.812 9.68162 34.0709 9.16081 34.6942C8.95253 34.9019 8.79626 35.1097 8.63992 35.3695L8.37911 35.9932C8.11843 36.5128 8.32568 37.0851 8.84534 37.3458L24.956 44.4909C25.5797 44.7517 26.2035 44.8565 26.8275 44.8573C27.4515 44.8581 28.0757 44.7549 28.6479 44.5477L39.6243 41.234C40.3526 40.975 41.1328 40.872 41.9128 40.873L45.7088 40.878L45.723 30.01L41.0457 27.9239Z" stroke="#EC0000" stroke-width="1.5" stroke-miterlimit="10" stroke-linecap="round" stroke-linejoin="round"/>
</svg>
