<svg width="60" height="60" viewBox="0 0 60 60" fill="none" xmlns="http://www.w3.org/2000/svg">
<path d="M8.65277 15.6338L19.6354 18.5766L14.3629 38.2538L13.0395 37.8992C7.70489 36.4697 4.53906 30.9864 5.96848 25.6517L8.65277 15.6338Z" stroke="#EC0000" stroke-width="1.5"/>
<path d="M40.6018 18.5762L51.5844 15.6334L54.2687 25.6513C55.6981 30.986 52.5323 36.4693 47.1976 37.8988L45.8743 38.2534L40.6018 18.5762Z" stroke="#EC0000" stroke-width="1.5"/>
<path d="M34.4905 21.9717H41.3158L45.1186 35.9153L42.1608 37.8167L30.8292 28.6874L24.8534 31.5848C23.7947 32.0981 22.5197 31.761 21.8532 30.7914C21.0712 29.654 21.4174 28.0921 22.6067 27.3916L29.498 23.3327C31.0109 22.4416 32.7347 21.9717 34.4905 21.9717Z" stroke="#EC0000" stroke-width="1.5" stroke-linecap="round" stroke-linejoin="round"/>
<path d="M28.0059 24.0843L18.7101 22.6055L15.1186 35.2815L23.6677 42.1063C25.9353 43.599 31.6433 45.6888 36.3348 42.1063L44.4848 36.5491" stroke="#EC0000" stroke-width="1.5" stroke-linecap="round" stroke-linejoin="round"/>
</svg>
